PathFileType	4	(X/Y/Z)	C:/Users/beibeiliu/ov580/test_trc/User3\sequence.5_training_dense_right.trc
DataRate	CameraRate	NumFrames	NumMarkers	Units	OrigDataRate	OrigDataStartFrame	OrigNumFrames
120	120	12	19	mm	120	90	119
Frame#	Time	ThumbCMC			ThumbMCP			ThumbIP			ThumbTip			IndexMCP			IndexPIP			IndexTip			MiddleMCP			MiddlePIP			MiddleTip			RingMCP			RingPIP			RingTip			PinkyMCP			PinkyPIP			PinkyTip			BackHand1			BackHand2			BackHand3	
		X0	Y0	Z0	X1	Y1	Z1	X2	Y2	Z2	X3	Y3	Z3	X4	Y4	Z4	X5	Y5	Z5	X6	Y6	Z6	X7	Y7	Z7	X8	Y8	Z8	X9	Y9	Z9	X10	Y10	Z10	X11	Y11	Z11	X12	Y12	Z12	X13	Y13	Z13	X14	Y14	Z14	X15	Y15	Z15	X16	Y16	Z16	X17	Y17	Z17	X18	Y18	Z18	
89	0.741667	148.508	-21.3794	-13.4072	146.914	-9.95735	-44.5641	147.225	-10.0903	-76.7793	132.089	-25.394	-90.9584	168.657	-49.6234	-74.9409	154.202	-26.8452	-90.3897	141.141	-22.7047	-56.3703	150.495	-62.0548	-80.001	132.932	-34.9924	-89.3007	128.518	-30.5257	-49.3207	133.883	-64.6182	-77.5663	113.813	-44.5761	-78.0775	117.127	-37.1499	-45.2604	113.362	-73.327	-68.7423	104.036	-48.5828	-68.7005	104.089	-43.2154	-38.2553	137.058	-84.3104	-19.3345	125.7	-78.5289	6.40766	159.336	-58.2043	-4.75736	
90	0.75	148.244	-5.10357	-13.3529	147.741	5.2175	-48.217	149.042	5.93436	-79.7666	137.54	-12.7529	-97.9727	178.585	-24.6242	-78.5603	153.545	-12.5879	-91.0576	143.981	-9.55775	-59.1426	163.978	-45.7252	-81.3211	139.536	-24.3014	-91.5869	129.875	-22.0261	-54.3717	146.144	-55.9417	-78.0191	121.186	-35.2825	-77.4639	122.818	-32.7327	-44.5696	131.598	-65.9548	-70.0688	111.163	-46.2074	-68.9612	114.249	-41.3869	-41.7303	158.276	-69.1789	-24.8419	142.516	-64.4708	7.76138	169.494	-39.2619	-6.09788	
91	0.758333	142.092	6.90786	-15.8443	139.363	21.8682	-49.5132	136.785	22.8716	-75.4744	135.393	6.85153	-99.4598	174.574	0.163508	-80.6009	144.246	8.0696	-90.1464	138.829	1.78093	-59.1842	168.041	-20.1246	-85.42	135.413	-10.9285	-91.5438	130.557	-13.9174	-53.7895	155.225	-34.9858	-82.1143	123.288	-28.9681	-79.3428	123.914	-23.2069	-48.9087	144.651	-54.7335	-74.251	120.497	-38.5955	-70.1481	121.743	-35.7581	-43.2051	172.913	-48.492	-28.2416	156.513	-51.4092	2.81003	169.409	-16.0809	-7.16412	
92	0.766667	130.114	20.8872	-19.8314	123.229	29.0299	-49.1813	120.039	36.405	-78.1584	126.411	18.2977	-98.057	160.441	28.5203	-82.5189	130.127	21.0671	-93.1087	128.797	9.93896	-62.2445	164.415	5.50007	-88.5602	131.227	1.99902	-94.6541	127.639	-9.14279	-59.5501	157.732	-13.286	-84.2414	129.101	-20.5436	-86.2283	126.623	-19.2971	-47.909	154.144	-34.2239	-80.4477	129.558	-31.2797	-76.7886	128.321	-28.2386	-44.3313	179.398	-21.5542	-30.302	165.636	-31.7955	0.121938	162.876	6.4685	-11.4851	
93	0.775	114.947	24.3072	-21.0698	101.588	33.0726	-50.1999	102.138	39.5207	-82.2921	109.106	27.404	-105.003	140.333	44.2714	-84.4866	113.997	29.4975	-97.2408	117.928	14.1499	-65.4306	151.268	27.1953	-89.6493	123.692	5.58144	-98.6172	123.084	-0.718102	-60.6109	151.886	3.54003	-88.4309	128.26	-11.7763	-89.1713	121.812	-12.8313	-57.1938	156.84	-15.1102	-82.4047	131.821	-25.2773	-79.4334	131.958	-22.9539	-48.1236	177.134	2.53152	-35.803	163.298	-9.16462	-3.06186	153.239	25.9218	-15.914	
94	0.783333	99.4836	19.2063	-20.9504	83.2445	25.6907	-49.8169	79.3344	32.9748	-83.2906	94.7267	22.7232	-106.069	117.482	47.6508	-88.8864	97.6557	23.8876	-99.2081	100.231	15.663	-67.6125	131.787	35.5985	-95.0897	111.196	9.12077	-101.872	115.11	0.817404	-63.7686	140.897	14.0091	-93.2611	123.436	-9.14379	-91.9365	121.271	-12.9052	-58.462	150.564	0.946168	-83.5069	128.66	-16.6227	-82.3552	130.477	-16.1764	-49.1866	163.693	20.305	-39.7776	160.067	6.78285	-12.5351	133.833	34.8748	-15.2563	
95	0.791667	84.1363	15.5902	-25.0928	67.1718	15.5167	-52.951	62.8799	18.8835	-87.4295	79.2802	11.9051	-105.206	92.9154	44.9248	-90.5027	81.8333	15.6855	-102.603	87.7153	9.45876	-71.1868	115.594	34.0542	-98.3667	98.1147	5.07334	-106.914	105.707	-3.64253	-69.4316	125.688	17.9908	-94.9263	113.361	-9.97967	-94.2709	114.504	-11.1955	-60.1711	138.168	5.29584	-89.0832	123.303	-18.1753	-82.0742	126.857	-14.2024	-54.1811	146.48	32.8047	-42.9399	148.914	18.5257	-15.1785	119.094	37.7401	-24.6158	
96	0.8	73.0436	8.78826	-27.3495	61.847	3.26973	-57.392	53.6584	0.138342	-84.7853	68.7521	-5.03418	-107.882	74.6873	32.6766	-96.0205	65.9723	3.61849	-105.023	80.256	-2.11938	-74.3945	94.3124	23.6048	-106.007	90.253	-7.64731	-108.472	94.3187	-11.176	-71.0101	115.318	10.2881	-98.1272	105.845	-19.7055	-90.7513	103.798	-11.821	-59.1687	132.044	0.381175	-92.9554	114.571	-20.8437	-82.1047	120.016	-17.951	-54.5776	130.544	33.1707	-47.4983	134.565	24.2342	-20.1037	102.882	34.9823	-25.4046	
97	0.808333	64.3382	-1.1274	-28.7499	54.0216	-10.7788	-55.7914	43.2306	-19.8053	-83.7885	64.2173	-24.6148	-105.346	66.3	15.8584	-100.212	60.9074	-15.1856	-103.918	71.4934	-12.4608	-72.9092	82.7115	8.16172	-109.11	78.4582	-22.8511	-106.891	87.8687	-19.5478	-67.3837	103.363	-4.85523	-101.8	101.835	-30.882	-91.4903	102.202	-20.5398	-58.7804	119.616	-8.07123	-92.8046	112.8	-32.9252	-78.3202	115.783	-20.0553	-50.7185	120.351	28.6124	-56.055	125.308	24.8541	-25.3517	89.5533	30.1728	-32.7894	
98	0.816667	57.8053	-10.7113	-24.4908	44.876	-27.6781	-49.9478	42.5992	-38.5119	-78.7456	61.6461	-46.3192	-100.831	58.1849	-4.16384	-100.664	56.8313	-35.8182	-100.215	61.9616	-25.2527	-67.0599	77.2153	-11.3973	-108.317	74.6221	-43.9384	-98.7674	79.0418	-33.793	-63.6921	97.2357	-18.3376	-98.3151	94.5844	-45.4646	-86.1982	94.4443	-32.6798	-55.8206	116.957	-22.7063	-91.2794	102.519	-43.4847	-73.4162	106.671	-27.6759	-49.6397	107.836	19.644	-57.2574	117.681	19.1851	-26.0982	77.8923	21.5937	-38.201	
99	0.825	49.3904	-18.7559	-22.8692	38.7867	-41.0142	-44.5167	36.3041	-58.0653	-73.0038	58.5764	-66.9245	-90.0715	46.1511	-25.9198	-95.0646	44.8593	-56.0255	-90.0026	55.3554	-38.7394	-60.7552	64.993	-33.3868	-101.79	65.8393	-62.3133	-88.9801	70.777	-44.8564	-53.6669	86.8071	-39.7076	-92.3046	88.0659	-62.3795	-72.6659	88.5691	-42.8737	-46.7632	106.232	-43.1875	-85.5138	100.057	-59.2491	-62.4834	97.6743	-38.2676	-40.56	99.9568	5.38798	-61.7401	110.562	11.6107	-29.5165	70.4986	9.96734	-38.1032	
100	0.833333	43.8989	-24.5029	-17.0039	26.8092	-50.4998	-34.472	26.0278	-72.6165	-55.8048	51.0797	-79.7908	-70.7536	40.1528	-44.3676	-87.0825	35.3897	-72.503	-71.4046	45.6955	-52.161	-49.5087	57.8466	-52.9352	-89.9131	56.0166	-78.8042	-70.2521	62.1471	-54.6495	-42.2089	77.392	-57.0774	-81.8042	73.0692	-77.556	-57.3641	75.6169	-49.8831	-34.6156	94.4475	-58.5949	-73.5613	84.6085	-72.0519	-50.9786	89.9802	-48.0833	-30.6669	90.6547	-8.85993	-57.8883	104.261	0.0589946	-30.2146	65.4463	2.39052	-38.0474	
